HIERARCHY
ROOT Hips
{
	OFFSET 0.00000 0.00000 0.00000
	CHANNELS 6 Xposition Yposition Zposition Zrotation Yrotation Xrotation 
	JOINT LHipJoint
	{
		OFFSET 0 0 0
		CHANNELS 3 Zrotation Yrotation Xrotation
		JOINT LeftUpLeg
		{
			OFFSET 1.44960 -1.75505 0.85172
			CHANNELS 3 Zrotation Yrotation Xrotation
			JOINT LeftLeg
			{
				OFFSET 2.40573 -6.60971 0.00000
				CHANNELS 3 Zrotation Yrotation Xrotation
				JOINT LeftFoot
				{
					OFFSET 2.58773 -7.10974 0.00000
					CHANNELS 3 Zrotation Yrotation Xrotation
					JOINT LeftToeBase
					{
						OFFSET 0.18252 -0.50147 1.77316
						CHANNELS 3 Zrotation Yrotation Xrotation
						End Site
						{
							OFFSET 0.00000 -0.00000 0.92990
						}
					}
				}
			}
		}
	}
	JOINT RHipJoint
	{
		OFFSET 0 0 0
		CHANNELS 3 Zrotation Yrotation Xrotation
		JOINT RightUpLeg
		{
			OFFSET -1.40744 -1.75505 0.85172
			CHANNELS 3 Zrotation Yrotation Xrotation
			JOINT RightLeg
			{
				OFFSET -2.43714 -6.69600 0.00000
				CHANNELS 3 Zrotation Yrotation Xrotation
				JOINT RightFoot
				{
					OFFSET -2.51650 -6.91404 0.00000
					CHANNELS 3 Zrotation Yrotation Xrotation
					JOINT RightToeBase
					{
						OFFSET -0.25383 -0.69740 1.96384
						CHANNELS 3 Zrotation Yrotation Xrotation
						End Site
						{
							OFFSET -0.00000 -0.00000 1.04244
						}
					}
				}
			}
		}
	}
	JOINT LowerBack
	{
		OFFSET 0 0 0
		CHANNELS 3 Zrotation Yrotation Xrotation
		JOINT Spine
		{
			OFFSET 0.00579 2.14458 -0.24367
			CHANNELS 3 Zrotation Yrotation Xrotation
			JOINT Spine1
			{
				OFFSET 0.05899 2.16316 -0.04515
				CHANNELS 3 Zrotation Yrotation Xrotation
				JOINT Neck
				{
					OFFSET 0 0 0
					CHANNELS 3 Zrotation Yrotation Xrotation
					JOINT Neck1
					{
						OFFSET -0.01650 1.59577 0.24841
						CHANNELS 3 Zrotation Yrotation Xrotation
						JOINT Head
						{
							OFFSET -0.01016 1.63072 -0.17782
							CHANNELS 3 Zrotation Yrotation Xrotation
							End Site
							{
								OFFSET -0.00250 1.64111 -0.08717
							}
						}
					}
				}
				JOINT LeftShoulder
				{
					OFFSET 0 0 0
					CHANNELS 3 Zrotation Yrotation Xrotation
					JOINT LeftArm
					{
						OFFSET 3.17745 0.95174 -0.45729
						CHANNELS 3 Zrotation Yrotation Xrotation
						JOINT LeftForeArm
						{
							OFFSET 4.93485 -0.00000 0.00000
							CHANNELS 3 Zrotation Yrotation Xrotation
							JOINT LeftHand
							{
								OFFSET 3.41719 -0.00000 -0.00000
								CHANNELS 3 Zrotation Yrotation Xrotation
								JOINT LeftFingerBase
								{
									OFFSET 0 0 0
									CHANNELS 3 Zrotation Yrotation Xrotation
									JOINT LeftHandIndex1
									{
										OFFSET 0.62410 -0.00000 -0.00000
										CHANNELS 3 Zrotation Yrotation Xrotation
										End Site
										{
											OFFSET 0.50317 -0.00000 -0.00000
										}
									}
								}
								JOINT LThumb
								{
									OFFSET 0 0 0
									CHANNELS 3 Zrotation Yrotation Xrotation
									End Site
									{
										OFFSET 0.51085 -0.00000 0.51085
									}
								}
							}
						}
					}
				}
				JOINT RightShoulder
				{
					OFFSET 0 0 0
					CHANNELS 3 Zrotation Yrotation Xrotation
					JOINT RightArm
					{
						OFFSET -2.87924 1.13038 -0.75204
						CHANNELS 3 Zrotation Yrotation Xrotation
						JOINT RightForeArm
						{
							OFFSET -5.22034 -0.00000 0.00000
							CHANNELS 3 Zrotation Yrotation Xrotation
							JOINT RightHand
							{
								OFFSET -3.41809 -0.00000 -0.00000
								CHANNELS 3 Zrotation Yrotation Xrotation
								JOINT RightFingerBase
								{
									OFFSET 0 0 0
									CHANNELS 3 Zrotation Yrotation Xrotation
									JOINT RightHandIndex1
									{
										OFFSET -0.77534 -0.00000 -0.00000
										CHANNELS 3 Zrotation Yrotation Xrotation
										End Site
										{
											OFFSET -0.62510 -0.00000 -0.00000
										}
									}
								}
								JOINT RThumb
								{
									OFFSET 0 0 0
									CHANNELS 3 Zrotation Yrotation Xrotation
									End Site
									{
										OFFSET -0.63464 -0.00000 0.63464
									}
								}
							}
						}
					}
				}
			}
		}
	}
}
MOTION
Frames: 6
Frame Time: .0083333
1.3048 17.5638 -24.8657 1.0556 -0.9080 4.6615 0.0000 0.0000 0.0000 -25.0547 -6.0842 -17.9497 1.3497 7.3549 20.7711 0.3383 -5.5569 -10.4717 0.0241 1.0024 2.7554 0.0000 0.0000 0.0000 17.3678 -5.0605 -2.2967 -7.5594 -15.7854 50.9597 0.5005 -13.1353 -0.2691 -2.9992 -10.6938 31.2541 -5.6807 1.5625 1.0435 3.6905 2.0461 -1.4810 6.9812 1.1648 -2.4605 -6.3733 -1.6822 -17.0806 -7.4021 1.3941 22.8453 -1.3698 -0.7949 10.2278 -0.0000 0.0000 0.0000 -92.2762 8.4949 15.8039 17.3549 -27.3232 -4.2489 -0.0000 -0.0000 8.6978 0.3897 41.3630 0.2576 -7.1250 0.0000 -0.0000 -46.6675 65.4428 -25.4626 -0.0000 0.0000 0.0000 72.6302 7.6726 2.8534 -13.4918 22.0035 -2.6347 0.0000 -0.0000 -9.2226 -21.5959 29.0684 -10.8864 7.1250 -0.0000 -0.0000 5.3183 0.7751 5.4130
1.3130 17.5665 -24.7576 1.3948 -0.9083 4.4949 0.0000 0.0000 0.0000 -25.5750 -5.7860 -17.3497 1.3294 7.3014 20.6115 0.3353 -5.3777 -10.4045 0.0379 1.2571 3.4565 0.0000 0.0000 0.0000 17.0049 -4.7983 -3.3424 -7.9518 -16.0837 52.3889 0.5204 -13.0088 -1.6020 -2.9333 -10.5863 30.8970 -6.1067 1.6411 1.2118 3.5818 2.1321 -1.4042 7.1040 1.2135 -2.5028 -6.2568 -1.5834 -17.1518 -7.3633 1.4977 22.8397 -1.3613 -0.7332 10.2384 -0.0000 0.0000 0.0000 -91.9690 8.4418 16.7122 17.7267 -27.8059 -4.4210 -0.0000 -0.0000 7.9406 0.1188 40.7075 0.0774 -7.1250 0.0000 -0.0000 -45.8953 64.9125 -24.4172 -0.0000 0.0000 0.0000 72.8609 7.1712 2.1364 -13.3809 21.8428 -2.5933 0.0000 -0.0000 -9.0294 -20.2793 28.9618 -10.1441 7.1250 -0.0000 -0.0000 6.0734 0.4098 6.1512
1.3309 17.5595 -24.6433 2.0434 -0.3676 4.3070 0.0000 0.0000 0.0000 -26.4865 -5.9788 -16.5090 1.3258 7.2919 20.5832 0.3714 -5.5415 -10.9383 0.0365 1.2333 3.3910 0.0000 0.0000 0.0000 16.1783 -5.1774 -4.2648 -8.3169 -16.3475 53.6964 0.4921 -12.4264 -2.8305 -2.9477 -10.6100 30.9754 -6.6045 1.4478 1.3881 3.3605 1.8479 -1.2514 7.1654 1.0681 -2.4048 -6.0559 -1.6997 -17.4976 -7.5664 1.3534 22.7295 -1.4889 -0.8088 10.2650 -0.0000 -0.0000 0.0000 -91.7545 7.8601 16.9998 17.7962 -27.8954 -4.4535 -0.0000 -0.0000 7.8963 0.5563 42.2714 0.3742 -7.1250 0.0000 -0.0000 -48.0029 66.1055 -27.0402 -0.0000 -0.0000 0.0000 73.1280 6.7565 2.3127 -13.3595 21.8117 -2.5853 0.0000 -0.0000 -9.1401 -20.5266 28.5847 -10.1563 7.1250 -0.0000 -0.0000 5.8833 0.0711 5.9219
1.3381 17.5664 -24.5361 1.6915 0.1212 4.2101 0.0000 0.0000 0.0000 -26.1866 -6.2634 -15.8731 1.3263 7.2933 20.5873 0.3822 -5.4149 -11.0727 0.0404 1.2970 3.5664 0.0000 0.0000 0.0000 16.7117 -5.1825 -5.3511 -8.6190 -16.5562 54.7629 0.4208 -11.4094 -4.4505 -2.4515 -9.7491 28.1680 -6.2898 1.2577 1.3782 3.5513 1.6059 -1.1338 7.1991 0.9328 -2.2305 -6.7869 -1.6939 -17.1400 -6.7600 1.2884 22.2900 -1.0787 -0.7788 10.0275 0.0000 0.0000 0.0000 -91.6669 7.6758 17.6010 18.1012 -28.2866 -4.5971 -0.0000 -0.0000 7.3992 0.7980 41.5845 0.5297 -7.1250 0.0000 -0.0000 -46.6415 65.7135 -25.7246 0.0000 0.0000 0.0000 73.3038 6.2970 2.0182 -13.3372 21.7793 -2.5771 0.0000 -0.0000 -8.8130 -20.8174 28.0829 -10.1476 7.1250 -0.0000 -0.0000 5.6524 -0.3880 5.6415
1.3424 17.5606 -24.4412 1.8396 0.3399 4.1195 0.0000 0.0000 0.0000 -26.4335 -6.4295 -15.5266 1.3453 7.3432 20.7362 0.3750 -5.5577 -10.9898 0.0743 1.7579 4.8371 0.0000 0.0000 0.0000 16.6172 -4.8714 -6.4057 -8.8906 -16.7368 55.7109 0.3913 -11.0449 -5.0602 -2.2826 -9.4314 27.1542 -6.2641 1.1062 1.7226 3.3411 1.3801 -1.2297 6.9633 0.8292 -2.4790 -6.0586 -1.7053 -17.1567 -7.4283 1.2621 22.5945 -1.4446 -0.8218 10.1466 -0.0000 0.0000 0.0000 -91.1654 7.7123 17.7440 18.3583 -28.6135 -4.7196 -0.0000 -0.0000 6.9754 1.7163 40.6662 1.1186 -7.1250 0.0000 -0.0000 -44.3159 65.3416 -23.8448 -0.0000 0.0000 0.0000 73.8919 5.8386 1.4734 -13.1540 21.5124 -2.5095 0.0000 -0.0000 -8.9422 -19.6469 28.5262 -9.6754 7.1250 -0.0000 -0.0000 6.3930 -0.1528 6.4160
1.3518 17.5473 -24.3356 1.7485 0.6307 3.8129 0.0000 0.0000 0.0000 -26.4572 -6.2418 -14.9411 1.3836 7.4427 21.0336 0.4056 -5.7949 -11.4335 0.0858 1.8898 5.2013 0.0000 0.0000 0.0000 16.7267 -4.7044 -7.0607 -9.1084 -16.8770 56.4642 0.3229 -10.2837 -6.2920 -2.1448 -9.1614 26.3014 -6.1515 1.0123 1.9112 3.3683 1.2495 -0.9764 6.9319 0.7470 -2.2973 -6.3389 -1.7418 -17.3290 -6.9726 1.1597 22.2259 -1.2458 -0.8264 10.0388 -0.0000 -0.0000 0.0000 -91.0415 6.9910 17.7369 18.3441 -28.5956 -4.7128 -0.0000 -0.0000 7.0053 1.7192 41.9329 1.1491 -7.1250 0.0000 -0.0000 -46.3488 66.2236 -26.0518 -0.0000 -0.0000 0.0000 74.0748 5.9143 0.6277 -12.7382 20.9024 -2.3591 0.0000 -0.0000 -8.2424 -19.5635 28.4115 -9.5970 7.1250 -0.0000 -0.0000 6.4290 -0.2851 6.4377
